<svg width="62" height="52" viewBox="0 0 62 52" fill="none" xmlns="http://www.w3.org/2000/svg">
<path d="M61.0453 42.9118L40.0328 25.4204L61.0934 8.15474C61.9582 7.43755 61.9582 6.2688 61.0934 5.55161L55.1035 0.557861C54.6871 0.212549 54.1266 0.0266113 53.534 0.0266113C52.9414 0.0266113 52.3809 0.22583 51.9645 0.557861L31 17.7704L10.0035 0.571143C9.58712 0.225831 9.02657 0.0398934 8.43399 0.0398934C7.84142 0.0398934 7.28087 0.239112 6.86446 0.571143L0.890637 5.56489C0.0257935 6.28208 0.0257935 7.45083 0.890637 8.16802L21.9512 25.4336L0.9547 42.9118C0.538294 43.2571 0.29806 43.7219 0.29806 44.2133C0.29806 44.7047 0.522278 45.1696 0.9547 45.5149L6.94454 50.5086C7.37696 50.8672 7.93751 51.0532 8.51407 51.0532C9.07462 51.0532 9.65118 50.8805 10.0836 50.5086L31 33.0836L51.9324 50.4954C52.3648 50.854 52.9254 51.0399 53.502 51.0399C54.0625 51.0399 54.6391 50.8672 55.0715 50.4954L61.0613 45.5016C61.4777 45.1563 61.718 44.6915 61.718 44.2C61.702 43.7219 61.4617 43.2571 61.0453 42.9118Z" fill="black"/>
</svg>
