<svg width="326" height="24" viewBox="0 0 326 24" fill="none" xmlns="http://www.w3.org/2000/svg">
<path d="M0.5 12H148" stroke="#585858" stroke-width="0.5"/>
<path d="M159.058 18.68C158.218 18.68 157.456 18.482 156.772 18.086C156.088 17.678 155.542 17.132 155.134 16.448C154.738 15.764 154.54 15.002 154.54 14.162C154.54 13.322 154.738 12.566 155.134 11.894C155.542 11.222 156.088 10.688 156.772 10.292C157.456 9.884 158.218 9.68 159.058 9.68C159.91 9.68 160.678 9.878 161.362 10.274C162.046 10.67 162.586 11.21 162.982 11.894C163.39 12.566 163.594 13.322 163.594 14.162C163.594 15.002 163.39 15.764 162.982 16.448C162.586 17.132 162.046 17.678 161.362 18.086C160.678 18.482 159.91 18.68 159.058 18.68ZM159.058 16.772C159.55 16.772 159.982 16.664 160.354 16.448C160.738 16.22 161.032 15.908 161.236 15.512C161.452 15.116 161.56 14.666 161.56 14.162C161.56 13.658 161.452 13.214 161.236 12.83C161.02 12.446 160.726 12.146 160.354 11.93C159.982 11.702 159.55 11.588 159.058 11.588C158.578 11.588 158.146 11.702 157.762 11.93C157.39 12.146 157.096 12.446 156.88 12.83C156.676 13.214 156.574 13.658 156.574 14.162C156.574 14.666 156.676 15.116 156.88 15.512C157.096 15.908 157.39 16.22 157.762 16.448C158.146 16.664 158.578 16.772 159.058 16.772ZM165.241 18.5V9.86H167.221V18.5H165.241ZM167.221 13.694L166.537 13.352C166.537 12.26 166.777 11.378 167.257 10.706C167.749 10.022 168.487 9.68 169.471 9.68C169.903 9.68 170.293 9.758 170.641 9.914C170.989 10.07 171.313 10.322 171.613 10.67L170.317 12.002C170.161 11.834 169.987 11.714 169.795 11.642C169.603 11.57 169.381 11.534 169.129 11.534C168.577 11.534 168.121 11.708 167.761 12.056C167.401 12.404 167.221 12.95 167.221 13.694Z" fill="black"/>
<path d="M178 12H325.5" stroke="#585858" stroke-width="0.5"/>
</svg>
