<svg width="342" height="57" viewBox="0 0 342 57" fill="none" xmlns="http://www.w3.org/2000/svg">
<path d="M0.5 5.5C0.5 2.73858 2.73858 0.5 5.5 0.5H336.5C339.261 0.5 341.5 2.73858 341.5 5.5V51.5C341.5 54.2614 339.261 56.5 336.5 56.5H5.5C2.73857 56.5 0.5 54.2614 0.5 51.5V5.5Z" fill="#B6E13D"/>
<path d="M130.365 30.372V28.092H134.613C135.461 28.092 136.117 27.876 136.581 27.444C137.061 26.996 137.301 26.38 137.301 25.596C137.301 24.892 137.069 24.3 136.605 23.82C136.141 23.34 135.485 23.1 134.637 23.1H130.365V20.7H134.757C135.813 20.7 136.741 20.916 137.541 21.348C138.341 21.764 138.957 22.34 139.389 23.076C139.837 23.796 140.061 24.62 140.061 25.548C140.061 26.524 139.837 27.372 139.389 28.092C138.957 28.812 138.341 29.372 137.541 29.772C136.741 30.172 135.813 30.372 134.757 30.372H130.365ZM128.469 37.5V20.7H131.229V37.5H128.469ZM137.685 37.5L131.805 30.204L134.373 29.268L141.165 37.5H137.685ZM147.851 37.74C146.699 37.74 145.659 37.484 144.731 36.972C143.819 36.444 143.091 35.724 142.547 34.812C142.019 33.9 141.755 32.876 141.755 31.74C141.755 30.604 142.019 29.588 142.547 28.692C143.075 27.78 143.787 27.06 144.683 26.532C145.595 26.004 146.603 25.74 147.707 25.74C148.779 25.74 149.723 25.988 150.539 26.484C151.371 26.98 152.019 27.66 152.483 28.524C152.963 29.388 153.203 30.372 153.203 31.476C153.203 31.668 153.187 31.868 153.155 32.076C153.139 32.268 153.107 32.484 153.059 32.724H143.603V30.564H151.691L150.707 31.428C150.675 30.724 150.539 30.132 150.299 29.652C150.059 29.172 149.715 28.804 149.267 28.548C148.835 28.292 148.299 28.164 147.659 28.164C146.987 28.164 146.403 28.308 145.907 28.596C145.411 28.884 145.027 29.292 144.755 29.82C144.483 30.332 144.347 30.948 144.347 31.668C144.347 32.388 144.491 33.02 144.779 33.564C145.067 34.108 145.475 34.532 146.003 34.836C146.531 35.124 147.139 35.268 147.827 35.268C148.419 35.268 148.963 35.164 149.459 34.956C149.971 34.748 150.403 34.444 150.755 34.044L152.435 35.748C151.875 36.404 151.195 36.9 150.395 37.236C149.595 37.572 148.747 37.74 147.851 37.74ZM160.119 42.54C158.903 42.54 157.839 42.316 156.927 41.868C156.015 41.436 155.279 40.82 154.719 40.02L156.447 38.292C156.911 38.868 157.439 39.3 158.031 39.588C158.623 39.876 159.335 40.02 160.167 40.02C161.207 40.02 162.031 39.748 162.639 39.204C163.247 38.676 163.551 37.948 163.551 37.02V34.188L164.007 31.644L163.551 29.076V25.98H166.191V37.02C166.191 38.124 165.935 39.084 165.423 39.9C164.911 40.732 164.199 41.38 163.287 41.844C162.375 42.308 161.319 42.54 160.119 42.54ZM159.999 37.26C158.975 37.26 158.047 37.012 157.215 36.516C156.399 36.004 155.751 35.308 155.271 34.428C154.807 33.548 154.575 32.564 154.575 31.476C154.575 30.388 154.807 29.412 155.271 28.548C155.751 27.684 156.399 27.004 157.215 26.508C158.047 25.996 158.975 25.74 159.999 25.74C160.911 25.74 161.711 25.924 162.399 26.292C163.087 26.66 163.623 27.172 164.007 27.828C164.391 28.468 164.583 29.22 164.583 30.084V32.916C164.583 33.764 164.383 34.516 163.983 35.172C163.599 35.828 163.063 36.34 162.375 36.708C161.687 37.076 160.895 37.26 159.999 37.26ZM160.527 34.764C161.167 34.764 161.727 34.628 162.207 34.356C162.687 34.084 163.055 33.708 163.311 33.228C163.583 32.732 163.719 32.156 163.719 31.5C163.719 30.844 163.583 30.276 163.311 29.796C163.055 29.3 162.687 28.916 162.207 28.644C161.727 28.372 161.167 28.236 160.527 28.236C159.887 28.236 159.319 28.372 158.823 28.644C158.343 28.916 157.967 29.3 157.695 29.796C157.423 30.276 157.287 30.844 157.287 31.5C157.287 32.14 157.423 32.708 157.695 33.204C157.967 33.7 158.343 34.084 158.823 34.356C159.319 34.628 159.887 34.764 160.527 34.764ZM169.148 37.5V25.98H171.788V37.5H169.148ZM170.468 23.868C170.02 23.868 169.644 23.716 169.34 23.412C169.052 23.108 168.908 22.732 168.908 22.284C168.908 21.836 169.052 21.46 169.34 21.156C169.644 20.852 170.02 20.7 170.468 20.7C170.932 20.7 171.308 20.852 171.596 21.156C171.884 21.46 172.028 21.836 172.028 22.284C172.028 22.732 171.884 23.108 171.596 23.412C171.308 23.716 170.932 23.868 170.468 23.868ZM178.517 37.74C177.877 37.74 177.261 37.66 176.669 37.5C176.077 37.324 175.533 37.084 175.037 36.78C174.541 36.46 174.109 36.076 173.741 35.628L175.421 33.948C175.821 34.412 176.277 34.764 176.789 35.004C177.317 35.228 177.909 35.34 178.565 35.34C179.157 35.34 179.605 35.252 179.909 35.076C180.213 34.9 180.365 34.644 180.365 34.308C180.365 33.956 180.221 33.684 179.933 33.492C179.645 33.3 179.269 33.14 178.805 33.012C178.357 32.868 177.877 32.724 177.365 32.58C176.869 32.436 176.389 32.244 175.925 32.004C175.477 31.748 175.109 31.404 174.821 30.972C174.533 30.54 174.389 29.98 174.389 29.292C174.389 28.556 174.557 27.924 174.893 27.396C175.245 26.868 175.733 26.46 176.357 26.172C176.997 25.884 177.757 25.74 178.637 25.74C179.565 25.74 180.381 25.908 181.085 26.244C181.805 26.564 182.405 27.052 182.885 27.708L181.205 29.388C180.869 28.972 180.485 28.66 180.053 28.452C179.621 28.244 179.125 28.14 178.565 28.14C178.037 28.14 177.629 28.22 177.341 28.38C177.053 28.54 176.909 28.772 176.909 29.076C176.909 29.396 177.053 29.644 177.341 29.82C177.629 29.996 177.997 30.148 178.445 30.276C178.909 30.404 179.389 30.548 179.885 30.708C180.397 30.852 180.877 31.06 181.325 31.332C181.789 31.588 182.165 31.94 182.453 32.388C182.741 32.82 182.885 33.388 182.885 34.092C182.885 35.212 182.493 36.1 181.709 36.756C180.925 37.412 179.861 37.74 178.517 37.74ZM186.814 37.5V21.18H189.454V37.5H186.814ZM184.054 28.38V25.98H192.214V28.38H184.054ZM199.156 37.74C198.004 37.74 196.964 37.484 196.036 36.972C195.124 36.444 194.396 35.724 193.852 34.812C193.324 33.9 193.06 32.876 193.06 31.74C193.06 30.604 193.324 29.588 193.852 28.692C194.38 27.78 195.092 27.06 195.988 26.532C196.9 26.004 197.908 25.74 199.012 25.74C200.084 25.74 201.028 25.988 201.844 26.484C202.676 26.98 203.324 27.66 203.788 28.524C204.268 29.388 204.508 30.372 204.508 31.476C204.508 31.668 204.492 31.868 204.46 32.076C204.444 32.268 204.412 32.484 204.364 32.724H194.908V30.564H202.996L202.012 31.428C201.98 30.724 201.844 30.132 201.604 29.652C201.364 29.172 201.02 28.804 200.572 28.548C200.14 28.292 199.604 28.164 198.964 28.164C198.292 28.164 197.708 28.308 197.212 28.596C196.716 28.884 196.332 29.292 196.06 29.82C195.788 30.332 195.652 30.948 195.652 31.668C195.652 32.388 195.796 33.02 196.084 33.564C196.372 34.108 196.78 34.532 197.308 34.836C197.836 35.124 198.444 35.268 199.132 35.268C199.724 35.268 200.268 35.164 200.764 34.956C201.276 34.748 201.708 34.444 202.06 34.044L203.74 35.748C203.18 36.404 202.5 36.9 201.7 37.236C200.9 37.572 200.052 37.74 199.156 37.74ZM206.624 37.5V25.98H209.264V37.5H206.624ZM209.264 31.092L208.352 30.636C208.352 29.18 208.672 28.004 209.312 27.108C209.968 26.196 210.952 25.74 212.264 25.74C212.84 25.74 213.36 25.844 213.824 26.052C214.288 26.26 214.72 26.596 215.12 27.06L213.392 28.836C213.184 28.612 212.952 28.452 212.696 28.356C212.44 28.26 212.144 28.212 211.808 28.212C211.072 28.212 210.464 28.444 209.984 28.908C209.504 29.372 209.264 30.1 209.264 31.092Z" fill="white"/>
<path d="M5.5 1.1H336.5V-0.1H5.5V1.1ZM340.9 5.5V51.5H342.1V5.5H340.9ZM336.5 55.9H5.5V57.1H336.5V55.9ZM1.1 51.5V5.5H-0.1V51.5H1.1ZM5.5 55.9C3.06994 55.9 1.1 53.9301 1.1 51.5H-0.1C-0.1 54.5928 2.4072 57.1 5.5 57.1V55.9ZM340.9 51.5C340.9 53.9301 338.93 55.9 336.5 55.9V57.1C339.593 57.1 342.1 54.5928 342.1 51.5H340.9ZM336.5 1.1C338.93 1.1 340.9 3.06995 340.9 5.5H342.1C342.1 2.40721 339.593 -0.1 336.5 -0.1V1.1ZM5.5 -0.1C2.40721 -0.1 -0.1 2.40721 -0.1 5.5H1.1C1.1 3.06995 3.06995 1.1 5.5 1.1V-0.1Z" fill="#8E8383"/>
</svg>
