<svg width="342" height="57" viewBox="0 0 342 57" fill="none" xmlns="http://www.w3.org/2000/svg">
<path d="M0.5 5.5C0.5 2.73858 2.73858 0.5 5.5 0.5H336.5C339.261 0.5 341.5 2.73858 341.5 5.5V51.5C341.5 54.2614 339.261 56.5 336.5 56.5H5.5C2.73857 56.5 0.5 54.2614 0.5 51.5V5.5Z" fill="#F6C002"/>
<path d="M142.688 37.74C141.36 37.74 140.232 37.5 139.304 37.02C138.376 36.54 137.544 35.836 136.808 34.908L138.68 33.036C139.144 33.708 139.696 34.236 140.336 34.62C140.976 34.988 141.792 35.172 142.784 35.172C143.712 35.172 144.448 34.98 144.992 34.596C145.552 34.212 145.832 33.684 145.832 33.012C145.832 32.452 145.688 31.996 145.4 31.644C145.112 31.292 144.728 31.004 144.248 30.78C143.784 30.54 143.264 30.332 142.688 30.156C142.128 29.964 141.56 29.756 140.984 29.532C140.424 29.292 139.904 28.996 139.424 28.644C138.96 28.292 138.584 27.836 138.296 27.276C138.008 26.716 137.864 26.004 137.864 25.14C137.864 24.148 138.104 23.308 138.584 22.62C139.08 21.916 139.744 21.38 140.576 21.012C141.408 20.644 142.336 20.46 143.36 20.46C144.464 20.46 145.448 20.676 146.312 21.108C147.192 21.54 147.904 22.092 148.448 22.764L146.576 24.636C146.096 24.092 145.592 23.692 145.064 23.436C144.552 23.164 143.96 23.028 143.288 23.028C142.456 23.028 141.8 23.196 141.32 23.532C140.856 23.868 140.624 24.34 140.624 24.948C140.624 25.46 140.768 25.876 141.056 26.196C141.344 26.5 141.72 26.764 142.184 26.988C142.664 27.196 143.184 27.396 143.744 27.588C144.32 27.78 144.888 27.996 145.448 28.236C146.024 28.476 146.544 28.788 147.008 29.172C147.488 29.54 147.872 30.02 148.16 30.612C148.448 31.204 148.592 31.948 148.592 32.844C148.592 34.348 148.056 35.54 146.984 36.42C145.928 37.3 144.496 37.74 142.688 37.74ZM151.008 37.5V25.98H153.648V37.5H151.008ZM152.328 23.868C151.88 23.868 151.504 23.716 151.2 23.412C150.912 23.108 150.768 22.732 150.768 22.284C150.768 21.836 150.912 21.46 151.2 21.156C151.504 20.852 151.88 20.7 152.328 20.7C152.792 20.7 153.168 20.852 153.456 21.156C153.744 21.46 153.888 21.836 153.888 22.284C153.888 22.732 153.744 23.108 153.456 23.412C153.168 23.716 152.792 23.868 152.328 23.868ZM161.409 42.54C160.193 42.54 159.129 42.316 158.217 41.868C157.305 41.436 156.569 40.82 156.009 40.02L157.737 38.292C158.201 38.868 158.729 39.3 159.321 39.588C159.913 39.876 160.625 40.02 161.457 40.02C162.497 40.02 163.321 39.748 163.929 39.204C164.537 38.676 164.841 37.948 164.841 37.02V34.188L165.297 31.644L164.841 29.076V25.98H167.481V37.02C167.481 38.124 167.225 39.084 166.713 39.9C166.201 40.732 165.489 41.38 164.577 41.844C163.665 42.308 162.609 42.54 161.409 42.54ZM161.289 37.26C160.265 37.26 159.337 37.012 158.505 36.516C157.689 36.004 157.041 35.308 156.561 34.428C156.097 33.548 155.865 32.564 155.865 31.476C155.865 30.388 156.097 29.412 156.561 28.548C157.041 27.684 157.689 27.004 158.505 26.508C159.337 25.996 160.265 25.74 161.289 25.74C162.201 25.74 163.001 25.924 163.689 26.292C164.377 26.66 164.913 27.172 165.297 27.828C165.681 28.468 165.873 29.22 165.873 30.084V32.916C165.873 33.764 165.673 34.516 165.273 35.172C164.889 35.828 164.353 36.34 163.665 36.708C162.977 37.076 162.185 37.26 161.289 37.26ZM161.817 34.764C162.457 34.764 163.017 34.628 163.497 34.356C163.977 34.084 164.345 33.708 164.601 33.228C164.873 32.732 165.009 32.156 165.009 31.5C165.009 30.844 164.873 30.276 164.601 29.796C164.345 29.3 163.977 28.916 163.497 28.644C163.017 28.372 162.457 28.236 161.817 28.236C161.177 28.236 160.609 28.372 160.113 28.644C159.633 28.916 159.257 29.3 158.985 29.796C158.713 30.276 158.577 30.844 158.577 31.5C158.577 32.14 158.713 32.708 158.985 33.204C159.257 33.7 159.633 34.084 160.113 34.356C160.609 34.628 161.177 34.764 161.817 34.764ZM178.309 37.5V30.852C178.309 30.084 178.061 29.452 177.565 28.956C177.085 28.46 176.461 28.212 175.693 28.212C175.181 28.212 174.725 28.324 174.325 28.548C173.925 28.772 173.613 29.084 173.389 29.484C173.165 29.884 173.053 30.34 173.053 30.852L172.021 30.276C172.021 29.396 172.213 28.62 172.597 27.948C172.981 27.26 173.509 26.724 174.181 26.34C174.869 25.94 175.637 25.74 176.485 25.74C177.349 25.74 178.117 25.964 178.789 26.412C179.461 26.844 179.989 27.412 180.373 28.116C180.757 28.804 180.949 29.524 180.949 30.276V37.5H178.309ZM170.413 37.5V25.98H173.053V37.5H170.413ZM188.461 37.5V25.98H191.101V37.5H188.461ZM189.781 23.868C189.333 23.868 188.957 23.716 188.653 23.412C188.365 23.108 188.221 22.732 188.221 22.284C188.221 21.836 188.365 21.46 188.653 21.156C188.957 20.852 189.333 20.7 189.781 20.7C190.245 20.7 190.621 20.852 190.909 21.156C191.197 21.46 191.341 21.836 191.341 22.284C191.341 22.732 191.197 23.108 190.909 23.412C190.621 23.716 190.245 23.868 189.781 23.868ZM201.958 37.5V30.852C201.958 30.084 201.71 29.452 201.214 28.956C200.734 28.46 200.11 28.212 199.342 28.212C198.83 28.212 198.374 28.324 197.974 28.548C197.574 28.772 197.262 29.084 197.038 29.484C196.814 29.884 196.702 30.34 196.702 30.852L195.67 30.276C195.67 29.396 195.862 28.62 196.246 27.948C196.63 27.26 197.158 26.724 197.83 26.34C198.518 25.94 199.286 25.74 200.134 25.74C200.998 25.74 201.766 25.964 202.438 26.412C203.11 26.844 203.638 27.412 204.022 28.116C204.406 28.804 204.598 29.524 204.598 30.276V37.5H201.958ZM194.062 37.5V25.98H196.702V37.5H194.062Z" fill="white"/>
<path d="M5.5 1.1H336.5V-0.1H5.5V1.1ZM340.9 5.5V51.5H342.1V5.5H340.9ZM336.5 55.9H5.5V57.1H336.5V55.9ZM1.1 51.5V5.5H-0.1V51.5H1.1ZM5.5 55.9C3.06994 55.9 1.1 53.9301 1.1 51.5H-0.1C-0.1 54.5928 2.4072 57.1 5.5 57.1V55.9ZM340.9 51.5C340.9 53.9301 338.93 55.9 336.5 55.9V57.1C339.593 57.1 342.1 54.5928 342.1 51.5H340.9ZM336.5 1.1C338.93 1.1 340.9 3.06995 340.9 5.5H342.1C342.1 2.40721 339.593 -0.1 336.5 -0.1V1.1ZM5.5 -0.1C2.40721 -0.1 -0.1 2.40721 -0.1 5.5H1.1C1.1 3.06995 3.06995 1.1 5.5 1.1V-0.1Z" fill="#8E8383"/>
</svg>
